<svg width="54" height="54" viewBox="0 0 54 54" fill="none" xmlns="http://www.w3.org/2000/svg">
<path d="M9.02729 20.5022H32.4719C34.4335 22.0824 36.9401 23.0632 39.6783 23.0632C46.0401 23.0632 51.1758 17.9002 51.1758 11.5657C51.1758 8.37799 49.8953 5.51723 47.7974 3.44658C45.7267 1.34869 42.8387 0.0817871 39.6783 0.0817871C36.9401 0.0817871 34.4472 1.02175 32.4719 2.64285H9.02729C4.09588 2.64285 0.0908203 6.64791 0.0908203 11.5793C0.0908203 16.4971 4.09588 20.5022 9.02729 20.5022ZM39.6783 5.17666C43.2065 5.17666 46.0673 8.03742 46.0673 11.5657C46.0673 15.094 43.2065 17.9547 39.6783 17.9547C36.15 17.9547 33.2892 15.094 33.2892 11.5657C33.3029 8.03742 36.1636 5.17666 39.6783 5.17666Z" fill="black"/>
<path d="M42.2393 30.7191H18.7947C16.8331 29.1117 14.3265 28.1581 11.5883 28.1581C8.41427 28.1581 5.53989 29.4386 3.46924 31.5229C1.37135 33.5935 0.0908203 36.4543 0.0908203 39.642C0.0908203 45.9765 5.22656 51.1395 11.5883 51.1395C14.3265 51.1395 16.8194 50.1723 18.7947 48.5784H42.2393C47.1707 48.5784 51.1758 44.5734 51.1758 39.642C51.1758 34.7106 47.1707 30.7191 42.2393 30.7191ZM11.5883 46.0446C8.06008 46.0446 5.19932 43.1839 5.19932 39.6556C5.19932 36.1273 8.06008 33.2666 11.5883 33.2666C15.1166 33.2666 17.9774 36.1273 17.9774 39.6556C17.9774 43.1839 15.1166 46.0446 11.5883 46.0446Z" fill="black"/>
</svg>
