<svg width="16" height="17" viewBox="0 0 16 17" fill="none" xmlns="http://www.w3.org/2000/svg">
<path d="M6.62549 0.864C3.06849 0.864 0.158493 3.767 0.158493 7.324C0.158493 10.881 3.06849 13.792 6.62549 13.792C7.9424 13.7899 9.2268 13.3829 10.3045 12.626L13.8005 16.116C13.9061 16.2232 14.032 16.3083 14.1708 16.3664C14.3096 16.4245 14.4585 16.4544 14.609 16.4544C14.7595 16.4544 14.9084 16.4245 15.0472 16.3664C15.186 16.3083 15.3119 16.2232 15.4175 16.116C15.5233 16.0103 15.6072 15.8848 15.6644 15.7467C15.7217 15.6086 15.7511 15.4605 15.7511 15.311C15.7511 15.1615 15.7217 15.0134 15.6644 14.8753C15.6072 14.7372 15.5233 14.6117 15.4175 14.506L11.9215 11.009C12.6799 9.92989 13.0868 8.64298 13.0865 7.324C13.0865 3.767 10.1765 0.864 6.62649 0.864H6.62549ZM6.62549 3.141C7.17498 3.13941 7.71934 3.24657 8.22723 3.4563C8.73511 3.66602 9.19648 3.97417 9.58474 4.363C9.97301 4.75182 10.2805 5.21363 10.4895 5.72181C10.6985 6.23 10.8049 6.77452 10.8025 7.324C10.805 7.87356 10.6987 8.41819 10.4898 8.92649C10.2808 9.43479 9.97338 9.89672 9.5851 10.2857C9.19682 10.6746 8.73541 10.9828 8.22746 11.1926C7.71951 11.4024 7.17506 11.5096 6.62549 11.508C6.07546 11.5102 5.53043 11.4036 5.02184 11.1941C4.51325 10.9846 4.05118 10.6765 3.6623 10.2875C3.27341 9.89851 2.96539 9.43636 2.75604 8.92773C2.54668 8.41909 2.44011 7.87403 2.44249 7.324C2.44024 6.77405 2.54691 6.2291 2.75632 5.72058C2.96574 5.21206 3.27378 4.75003 3.66265 4.36116C4.05153 3.97228 4.51355 3.66425 5.02207 3.45483C5.53059 3.24541 6.07554 3.13875 6.62549 3.141Z" fill="black"/>
</svg>
